<svg xmlns="http://www.w3.org/2000/svg" viewBox="0 0 512 512"><path d="M339.789 102.153c-3.007 17.418-11.169 33.064-22.873 45.31H190.824c-11.318-11.843-19.319-26.868-22.554-43.596L54.046 153.541 256 245.733l201.954-92.192-118.165-51.388z" fill="#ad7b64"/><g fill="#966653"><path d="M173.02 119.894a86.697 86.697 0 01-4.751-16.027L54.046 153.541l20.298 9.266 98.676-42.913z"/><path d="M256 242.642L54.046 153.541v263.132a9.55 9.55 0 005.696 8.738L256 512l196.258-86.588a9.551 9.551 0 005.696-8.738V153.541L256 242.642z"/></g><path d="M74.651 429.052v-266.42l-20.605-9.091v263.132a9.55 9.55 0 005.696 8.738l15.369 6.781a10.917 10.917 0 01-.46-3.14z" fill="#875848"/><path d="M216.527 455.529l-125.14-55.211a6.379 6.379 0 01-3.804-5.836V221.897a2.055 2.055 0 012.884-1.88l126.438 55.784a9.318 9.318 0 015.557 8.525v167.335c0 3.055-3.14 5.101-5.935 3.868z" fill="#e4eaf8"/><path d="M108.189 227.835l-17.831-7.867a1.976 1.976 0 00-2.774 1.808v172.706a6.379 6.379 0 003.804 5.836l16.801 7.412V227.835z" fill="#d8dce5"/><path d="M87.584 265.613l134.879 59.508v-44.326a5.482 5.482 0 00-3.27-5.016L90.357 218.938a1.976 1.976 0 00-2.774 1.808l.001 44.867z" fill="#00c3ff"/><path d="M108.189 226.805l-18.215-8.036a1.703 1.703 0 00-2.39 1.558v45.287l20.605 9.091v-47.9z" fill="#06b0f2"/><path d="M188.87 367.509l-74.579-32.903a7.727 7.727 0 016.238-14.14l74.579 32.903a7.727 7.727 0 01-6.238 14.14zm0 34.776l-74.579-32.904a7.726 7.726 0 116.238-14.139l74.579 32.905a7.726 7.726 0 013.95 10.188 7.726 7.726 0 01-10.188 3.95z" fill="#c3c8d1"/><path d="M189.777 149.911h128.185c21.911-22.926 29.172-54.703 21.79-83.398C329.91 28.263 295.191 0 253.87 0h-.001c-77.823 0-117.86 93.652-64.092 149.911z" fill="#f9b938"/><path d="M264.147.606A89.648 89.648 0 00253.87 0h-.001c-77.823 0-117.86 93.652-64.092 149.911h20.555C159.787 97.025 191.705 8.971 264.147.606z" fill="#e59f23"/><path d="M253.87 27.437c-35.819 0-64.49 30.763-60.932 67.359 1.495 15.061 8.456 28.506 18.859 38.351 1.088.906 5.741 5.7 14.148 10.021a61.207 61.207 0 0050.425 2.457c10.987-4.353 18.747-11.448 19.571-12.478 10.404-9.846 17.364-23.29 18.859-38.351 3.639-35.788-24.486-67.359-60.93-67.359z" fill="#fcd592"/><path d="M232.402 133.147c-10.404-9.846-17.364-23.29-18.859-38.351-3.208-32.993 19.787-61.266 50.629-66.492a61.584 61.584 0 00-10.302-.867h-.001c-35.905 0-64.481 30.85-60.931 67.359 1.495 15.061 8.456 28.506 18.86 38.351 1.086.905 5.741 5.7 14.148 10.021 12.001 6.163 25.91 8.08 38.226 5.861-14.918-2.688-22.35-8.033-31.77-15.882z" fill="#ffc850"/><path d="M251.43 119.845c-12.04-.299-21.096-6.767-21.096-12.339 0-2.787 2.488-6.966 5.573-6.966 3.781 0 6.767 6.468 15.523 7.463V88.201c-9.055-3.384-19.305-7.264-19.305-20.001 0-12.638 9.354-18.111 19.305-19.405v-2.786c0-1.294 1.493-2.488 3.384-2.488 1.692 0 3.384 1.194 3.384 2.488v2.587c6.468.199 17.016 2.09 17.016 7.862 0 2.289-1.592 6.866-5.274 6.866-2.786 0-5.075-3.184-11.742-3.681v17.513c8.856 3.284 18.807 7.762 18.807 21.295 0 12.24-7.662 19.305-18.807 21.096v3.085c0 1.294-1.692 2.488-3.384 2.488-1.89 0-3.384-1.194-3.384-2.488v-2.787zm.796-44.88V59.94c-4.976.796-7.961 3.184-7.961 6.965.001 4.379 3.384 6.27 7.961 8.06zm5.175 15.624v17.314c4.379-.895 7.463-3.482 7.463-8.159 0-4.876-3.184-7.264-7.463-9.155z" fill="#e4eaf8"/><path d="M337.458 155.191H170.317a7.727 7.727 0 010-15.454h167.141a7.727 7.727 0 010 15.454z" fill="#966653"/><path fill="#875848" d="M276.605 502.909V233.552L256 242.642V512z"/></svg>